<svg width="151" height="44" viewBox="0 0 151 44" fill="none" xmlns="http://www.w3.org/2000/svg">
<g filter="url(#filter0_d_207_158)">
<path d="M41.8438 27.4261V19.9091H45.4744V33H41.9886V30.6222H41.8523C41.5568 31.3892 41.0653 32.0057 40.3778 32.4716C39.696 32.9375 38.8636 33.1705 37.8807 33.1705C37.0057 33.1705 36.2358 32.9716 35.571 32.5739C34.9063 32.1761 34.3864 31.6108 34.0114 30.8778C33.642 30.1449 33.4545 29.267 33.4489 28.2443V19.9091H37.0795V27.5966C37.0852 28.3693 37.2926 28.9801 37.7017 29.429C38.1108 29.8778 38.6591 30.1023 39.3466 30.1023C39.7841 30.1023 40.1932 30.0028 40.5739 29.804C40.9545 29.5994 41.2614 29.2983 41.4943 28.9006C41.733 28.5028 41.8494 28.0114 41.8438 27.4261ZM52.0092 25.4318V33H48.3786V19.9091H51.8388V22.2188H51.9922C52.282 21.4574 52.7678 20.8551 53.4496 20.4119C54.1314 19.9631 54.9581 19.7386 55.9297 19.7386C56.8388 19.7386 57.6314 19.9375 58.3075 20.3352C58.9837 20.733 59.5092 21.3011 59.8842 22.0398C60.2592 22.7727 60.4467 23.6477 60.4467 24.6648V33H56.8161V25.3125C56.8217 24.5114 56.6172 23.8864 56.2024 23.4375C55.7876 22.983 55.2166 22.7557 54.4893 22.7557C54.0007 22.7557 53.5689 22.8608 53.1939 23.071C52.8246 23.2812 52.5348 23.5881 52.3246 23.9915C52.12 24.3892 52.0149 24.8693 52.0092 25.4318Z" fill="#756F69"/>
<path d="M78.777 21.6562H75.044C74.9759 21.1733 74.8366 20.7443 74.6264 20.3693C74.4162 19.9886 74.1463 19.6648 73.8168 19.3977C73.4872 19.1307 73.1065 18.9261 72.6747 18.7841C72.2486 18.642 71.7855 18.571 71.2855 18.571C70.3821 18.571 69.5952 18.7955 68.9247 19.2443C68.2543 19.6875 67.7344 20.3352 67.3651 21.1875C66.9957 22.0341 66.8111 23.0625 66.8111 24.2727C66.8111 25.517 66.9957 26.5625 67.3651 27.4091C67.7401 28.2557 68.2628 28.8949 68.9332 29.3267C69.6037 29.7585 70.3793 29.9744 71.2599 29.9744C71.7543 29.9744 72.2116 29.9091 72.6321 29.7784C73.0582 29.6477 73.4361 29.4574 73.7656 29.2074C74.0952 28.9517 74.3679 28.642 74.5838 28.2784C74.8054 27.9148 74.9588 27.5 75.044 27.0341L78.777 27.0511C78.6804 27.8523 78.4389 28.625 78.0526 29.3693C77.6719 30.108 77.1577 30.7699 76.5099 31.3551C75.8679 31.9347 75.1009 32.3949 74.2088 32.7358C73.3224 33.071 72.3196 33.2386 71.2003 33.2386C69.6435 33.2386 68.2514 32.8864 67.0241 32.1818C65.8026 31.4773 64.8366 30.4574 64.1264 29.1222C63.4219 27.7869 63.0696 26.1705 63.0696 24.2727C63.0696 22.3693 63.4276 20.75 64.1435 19.4148C64.8594 18.0795 65.831 17.0625 67.0582 16.3636C68.2855 15.6591 69.6662 15.3068 71.2003 15.3068C72.2116 15.3068 73.1491 15.4489 74.0128 15.733C74.8821 16.017 75.652 16.4318 76.3224 16.9773C76.9929 17.517 77.5384 18.179 77.9588 18.9631C78.3849 19.7472 78.6577 20.6449 78.777 21.6562ZM81.3551 33V19.9091H84.9858V33H81.3551ZM83.179 18.2216C82.6392 18.2216 82.1761 18.0426 81.7898 17.6847C81.4091 17.321 81.2188 16.8864 81.2188 16.3807C81.2188 15.8807 81.4091 15.4517 81.7898 15.0938C82.1761 14.7301 82.6392 14.5483 83.179 14.5483C83.7188 14.5483 84.179 14.7301 84.5597 15.0938C84.946 15.4517 85.1392 15.8807 85.1392 16.3807C85.1392 16.8864 84.946 17.321 84.5597 17.6847C84.179 18.0426 83.7188 18.2216 83.179 18.2216ZM96.2891 27.4261V19.9091H99.9197V33H96.4339V30.6222H96.2976C96.0021 31.3892 95.5107 32.0057 94.8232 32.4716C94.1413 32.9375 93.3089 33.1705 92.326 33.1705C91.451 33.1705 90.6811 32.9716 90.0163 32.5739C89.3516 32.1761 88.8317 31.6108 88.4567 30.8778C88.0874 30.1449 87.8999 29.267 87.8942 28.2443V19.9091H91.5249V27.5966C91.5305 28.3693 91.7379 28.9801 92.147 29.429C92.5561 29.8778 93.1044 30.1023 93.7919 30.1023C94.2294 30.1023 94.6385 30.0028 95.0192 29.804C95.3999 29.5994 95.7067 29.2983 95.9396 28.9006C96.1783 28.5028 96.2947 28.0114 96.2891 27.4261ZM107.648 33.2131C106.653 33.2131 105.753 32.9574 104.946 32.446C104.145 31.929 103.509 31.1705 103.037 30.1705C102.571 29.1648 102.338 27.9318 102.338 26.4716C102.338 24.9716 102.58 23.7244 103.062 22.7301C103.545 21.7301 104.188 20.983 104.989 20.4886C105.795 19.9886 106.679 19.7386 107.639 19.7386C108.372 19.7386 108.983 19.8636 109.472 20.1136C109.966 20.358 110.364 20.6648 110.665 21.0341C110.972 21.3977 111.205 21.7557 111.364 22.108H111.474V15.5455H115.097V33H111.517V30.9034H111.364C111.193 31.267 110.952 31.6278 110.639 31.9858C110.332 32.3381 109.932 32.6307 109.438 32.8636C108.949 33.0966 108.352 33.2131 107.648 33.2131ZM108.798 30.3239C109.384 30.3239 109.878 30.1648 110.281 29.8466C110.69 29.5227 111.003 29.071 111.219 28.4915C111.44 27.9119 111.551 27.233 111.551 26.4545C111.551 25.6761 111.443 25 111.227 24.4261C111.011 23.8523 110.699 23.4091 110.29 23.0966C109.881 22.7841 109.384 22.6278 108.798 22.6278C108.202 22.6278 107.699 22.7898 107.29 23.1136C106.881 23.4375 106.571 23.8864 106.361 24.4602C106.151 25.0341 106.045 25.6989 106.045 26.4545C106.045 27.2159 106.151 27.8892 106.361 28.4744C106.577 29.054 106.886 29.5085 107.29 29.8381C107.699 30.1619 108.202 30.3239 108.798 30.3239ZM121.815 33.2472C120.979 33.2472 120.235 33.1023 119.582 32.8125C118.928 32.517 118.411 32.0824 118.031 31.5085C117.656 30.929 117.468 30.2074 117.468 29.3438C117.468 28.6165 117.602 28.0057 117.869 27.5114C118.136 27.017 118.499 26.6193 118.96 26.3182C119.42 26.017 119.942 25.7898 120.528 25.6364C121.119 25.483 121.738 25.375 122.386 25.3125C123.147 25.233 123.761 25.1591 124.227 25.0909C124.692 25.017 125.031 24.9091 125.241 24.767C125.451 24.625 125.556 24.4148 125.556 24.1364V24.0852C125.556 23.5455 125.386 23.1278 125.045 22.8324C124.71 22.5369 124.232 22.3892 123.613 22.3892C122.96 22.3892 122.44 22.5341 122.053 22.8239C121.667 23.108 121.411 23.4659 121.286 23.8977L117.928 23.625C118.099 22.8295 118.434 22.142 118.934 21.5625C119.434 20.9773 120.079 20.5284 120.869 20.2159C121.664 19.8977 122.585 19.7386 123.63 19.7386C124.357 19.7386 125.053 19.8239 125.718 19.9943C126.388 20.1648 126.982 20.429 127.499 20.7869C128.022 21.1449 128.434 21.6051 128.735 22.1676C129.036 22.7244 129.187 23.392 129.187 24.1705V33H125.744V31.1847H125.641C125.431 31.5938 125.15 31.9545 124.798 32.267C124.445 32.5739 124.022 32.8153 123.528 32.9915C123.033 33.1619 122.462 33.2472 121.815 33.2472ZM122.854 30.7415C123.388 30.7415 123.86 30.6364 124.269 30.4261C124.678 30.2102 124.999 29.9205 125.232 29.5568C125.465 29.1932 125.582 28.7812 125.582 28.321V26.9318C125.468 27.0057 125.312 27.0739 125.113 27.1364C124.92 27.1932 124.701 27.2472 124.457 27.2983C124.212 27.3437 123.968 27.3864 123.724 27.4261C123.479 27.4602 123.258 27.4915 123.059 27.5199C122.633 27.5824 122.261 27.6818 121.942 27.8182C121.624 27.9545 121.377 28.1392 121.201 28.3722C121.025 28.5994 120.937 28.8835 120.937 29.2244C120.937 29.7188 121.116 30.0966 121.474 30.358C121.837 30.6136 122.298 30.7415 122.854 30.7415ZM136.827 33.2131C135.833 33.2131 134.933 32.9574 134.126 32.446C133.325 31.929 132.688 31.1705 132.217 30.1705C131.751 29.1648 131.518 27.9318 131.518 26.4716C131.518 24.9716 131.759 23.7244 132.242 22.7301C132.725 21.7301 133.367 20.983 134.168 20.4886C134.975 19.9886 135.859 19.7386 136.819 19.7386C137.552 19.7386 138.163 19.8636 138.651 20.1136C139.146 20.358 139.543 20.6648 139.844 21.0341C140.151 21.3977 140.384 21.7557 140.543 22.108H140.654V15.5455H144.276V33H140.697V30.9034H140.543C140.373 31.267 140.131 31.6278 139.819 31.9858C139.512 32.3381 139.112 32.6307 138.617 32.8636C138.129 33.0966 137.532 33.2131 136.827 33.2131ZM137.978 30.3239C138.563 30.3239 139.058 30.1648 139.461 29.8466C139.87 29.5227 140.183 29.071 140.398 28.4915C140.62 27.9119 140.731 27.233 140.731 26.4545C140.731 25.6761 140.623 25 140.407 24.4261C140.191 23.8523 139.879 23.4091 139.469 23.0966C139.06 22.7841 138.563 22.6278 137.978 22.6278C137.381 22.6278 136.879 22.7898 136.469 23.1136C136.06 23.4375 135.751 23.8864 135.54 24.4602C135.33 25.0341 135.225 25.6989 135.225 26.4545C135.225 27.2159 135.33 27.8892 135.54 28.4744C135.756 29.054 136.066 29.5085 136.469 29.8381C136.879 30.1619 137.381 30.3239 137.978 30.3239Z" fill="#EF9101"/>
</g>
<g filter="url(#filter1_d_207_158)">
<path d="M28.4158 17.7079C28.4158 23.0695 18.7079 32.2698 18.7079 32.2698C18.7079 32.2698 9 23.0695 9 17.7079C9 12.3464 13.3464 8 18.7079 8C24.0695 8 28.4158 12.3464 28.4158 17.7079Z" stroke="#726868" stroke-width="4.5"/>
<path d="M18.7079 18.9214C19.3781 18.9214 19.9214 18.3781 19.9214 17.7079C19.9214 17.0377 19.3781 16.4944 18.7079 16.4944C18.0377 16.4944 17.4944 17.0377 17.4944 17.7079C17.4944 18.3781 18.0377 18.9214 18.7079 18.9214Z" stroke="#EF9101" stroke-width="4.5" stroke-linecap="round" stroke-linejoin="round"/>
</g>
<defs>
<filter id="filter0_d_207_158" x="27.4489" y="12.5483" width="122.827" height="30.6989" filterUnits="userSpaceOnUse" color-interpolation-filters="sRGB">
<feFlood flood-opacity="0" result="BackgroundImageFix"/>
<feColorMatrix in="SourceAlpha" type="matrix" values="0 0 0 0 0 0 0 0 0 0 0 0 0 0 0 0 0 0 127 0" result="hardAlpha"/>
<feOffset dy="4"/>
<feGaussianBlur stdDeviation="3"/>
<feComposite in2="hardAlpha" operator="out"/>
<feColorMatrix type="matrix" values="0 0 0 0 0 0 0 0 0 0 0 0 0 0 0 0 0 0 0.15 0"/>
<feBlend mode="normal" in2="BackgroundImageFix" result="effect1_dropShadow_207_158"/>
<feBlend mode="normal" in="SourceGraphic" in2="effect1_dropShadow_207_158" result="shape"/>
</filter>
<filter id="filter1_d_207_158" x="0.75" y="0.75" width="35.9158" height="41.6196" filterUnits="userSpaceOnUse" color-interpolation-filters="sRGB">
<feFlood flood-opacity="0" result="BackgroundImageFix"/>
<feColorMatrix in="SourceAlpha" type="matrix" values="0 0 0 0 0 0 0 0 0 0 0 0 0 0 0 0 0 0 127 0" result="hardAlpha"/>
<feOffset dy="1"/>
<feGaussianBlur stdDeviation="3"/>
<feComposite in2="hardAlpha" operator="out"/>
<feColorMatrix type="matrix" values="0 0 0 0 0 0 0 0 0 0 0 0 0 0 0 0 0 0 0.15 0"/>
<feBlend mode="normal" in2="BackgroundImageFix" result="effect1_dropShadow_207_158"/>
<feBlend mode="normal" in="SourceGraphic" in2="effect1_dropShadow_207_158" result="shape"/>
</filter>
</defs>
</svg>
